<svg width="350" height="350" xmlns="http://www.w3.org/2000/svg">
 <!-- Created with SVG Editor - http://github.com/mzalive/SVG Editor/ -->

 <g>
  <title>background</title>
  <rect height="352" width="352" y="-1" x="-1" fill="none" id="canvas_background"/>
 </g>
 <g>
  <title>Layer 1</title>
  <rect rx="17" height="300" width="300" y="23" x="28" stroke-width="11" stroke="#000" fill="none" id="svg_2"/>
  <path d="m273.879913,142.358246l-44.106186,12.201569c-4.042267,-10.740662 -10.12854,-20.049316 -17.496628,-27.463806l23.329147,-41.172554c2.055679,-3.632141 0.785202,-8.26329 -2.875931,-10.330658c-3.626434,-2.049942 -8.246017,-0.773834 -10.290237,2.8526l-22.139465,39.070633c-4.573578,-2.898804 -9.378128,-5.214432 -14.378815,-6.779289c-3.141479,-10.879303 -12.507721,-18.253403 -23.144516,-19.390884c-0.01149,-0.034744 -0.01149,-0.063614 -0.023117,-0.092476c-0.461731,-1.83049 -0.704514,-3.481956 -0.738922,-4.919846c-0.034836,-1.432129 0.092361,-2.656357 0.346436,-3.626488c0.277161,-0.981659 0.60051,-1.778503 0.946762,-2.402161c1.108932,-1.963326 2.575485,-3.251167 4.365631,-3.851654c0.173218,2.130791 1.074173,3.649467 2.668152,4.550346c1.166473,0.664055 2.540634,0.872032 4.134399,0.652466c1.593933,-0.23671 2.841278,-1.149132 3.753448,-2.748642c0.785583,-1.409042 0.958679,-2.944992 0.485153,-4.596527c-0.485153,-1.657303 -1.536163,-2.933525 -3.141327,-3.834213c-1.16658,-0.658432 -2.379059,-0.993271 -3.649567,-0.976028c-1.258865,0.005798 -2.471481,0.254181 -3.637848,0.733414c-1.155258,0.479263 -2.240616,1.212677 -3.245361,2.188538c-0.993286,0.975906 -1.824936,2.049957 -2.494644,3.222244c-1.004807,1.772705 -1.640137,3.75341 -1.894196,5.924606c-0.25386,2.165482 -0.2771,4.279037 -0.069107,6.357796c0.12677,1.212593 0.461899,2.280983 0.715958,3.401176c-2.840973,-0.16156 -5.739838,0.017448 -8.638916,0.814308c-3.637817,1.010468 -6.906052,2.725548 -9.67775,4.942863c-0.392792,-1.29921 -0.7509,-2.604134 -1.363022,-3.920746c-0.877731,-1.882591 -1.998032,-3.678497 -3.31456,-5.416595c-1.351303,-1.732346 -2.910507,-3.10083 -4.67746,-4.111534c-1.166504,-0.652351 -2.436996,-1.143242 -3.799423,-1.466667c-1.363068,-0.323425 -2.656708,-0.392647 -3.903839,-0.202194s-2.402206,0.600609 -3.49913,1.241608c-1.108879,0.635078 -1.974945,1.547562 -2.633408,2.696701c-0.900795,1.599586 -1.143311,3.239586 -0.715988,4.896858c0.438843,1.674538 1.374451,2.910385 2.78334,3.713036c1.582085,0.900902 3.141479,1.045052 4.619553,0.42144c1.478348,-0.617836 2.552429,-1.507034 3.210602,-2.685158c0.900833,-1.588005 0.900833,-3.354996 -0.045975,-5.260559c1.847763,-0.415817 3.765015,-0.063614 5.728363,1.068283c0.612045,0.340729 1.293289,0.866219 2.04422,1.570694c0.739182,0.698608 1.455139,1.680367 2.159592,2.939247c0.71611,1.253029 1.36264,2.783356 1.905426,4.602234c0.0923,0.329262 0.173233,0.739243 0.265549,1.103058c-6.894394,6.265434 -10.278549,15.804909 -8.315277,25.407875c-4.40007,4.423317 -8.107422,9.614693 -11.029099,15.406685l-39.04747,-22.151268c-3.63826,-2.04998 -8.269379,-0.768059 -10.325089,2.858437c-2.055817,3.643745 -0.773727,8.274857 2.864182,10.342178l41.172409,23.329163c-2.506317,10.140076 -2.921883,21.244598 -0.877701,32.522369l-44.117386,12.207214c-4.042252,1.114822 -6.398468,5.289581 -5.27803,9.320251c1.108643,4.007477 5.27803,6.380814 9.320328,5.249176l44.486908,-12.311432c3.811195,7.997772 10.324799,17.254303 17.947311,26.060516l-24.172165,42.679657c-2.05571,3.637909 -0.785583,8.263306 2.864288,10.313568c1.801376,1.039093 3.868698,1.229614 5.739563,0.715973c1.870956,-0.519928 3.545792,-1.738495 4.561874,-3.568939l21.920273,-38.666306c20.430618,19.633499 43.020462,31.205704 43.724884,7.968918c12.103531,19.373688 26.124222,-2.558319 34.081635,-30.09697l39.382065,22.307053c1.813324,1.045288 3.880646,1.230164 5.763153,0.710388c1.859406,-0.502258 3.533875,-1.732422 4.56189,-3.563049c2.055664,-3.626343 0.785187,-8.257446 -2.8526,-10.307419l-43.147598,-24.437958c2.205963,-11.393265 3.187805,-22.578506 2.41391,-31.321152l44.544724,-12.317017c4.019226,-1.108887 6.410217,-5.272278 5.266418,-9.302826c-1.120239,-4.024872 -5.289612,-6.38678 -9.319794,-5.272125z" stroke-width="0" stroke-opacity="null" stroke="#000" fill-opacity="null" fill="#000000" id="svg_17"/>
 </g>
</svg>