<svg width="350" height="350" xmlns="http://www.w3.org/2000/svg">
 <!-- Created with SVG Editor - http://github.com/mzalive/SVG Editor/ -->

 <g>
  <title>background</title>
  <rect id="canvas_background" fill="none" x="-1" y="-1" width="352" height="352"/>
 </g>
 <g>
  <title>Layer 1</title>
  <rect id="svg_2" fill="none" stroke="#000" stroke-width="11" x="28" y="23" width="300" height="300" rx="17"/>
  <path stroke="#000" id="svg_3" d="m175.000024,67.297899c-71.515233,0 -129.500022,38.549547 -129.500022,86.106134c0,27.201468 19.03494,51.437724 48.671186,67.211766c-4.216822,13.98485 -12.632185,29.474152 -28.896894,43.173818c0,0 37.96532,-2.514044 64.780815,-29.719206c1.543764,0.378807 3.141705,0.66393 4.700075,1.013713c-1.464542,-4.372 -2.326745,-8.916951 -2.326745,-13.645845c0,-32.085495 35.707329,-57.209231 81.312312,-57.209231c32.756305,0 60.318726,13.010895 73.293405,32.20816c11.045245,-12.671988 17.465837,-27.349436 17.465837,-43.044104c0,-47.545657 -57.98478,-86.095204 -129.49996,-86.095204l-0.000009,0zm110.587684,154.147714c0,-26.379174 -32.161237,-47.780253 -71.857798,-47.780253c-39.674906,0 -71.854273,21.401079 -71.854273,47.780253c0,26.393325 32.179367,47.783742 71.854273,47.783742c8.786872,0 17.155553,-1.100243 24.936215,-3.019076c14.875792,15.103045 35.941417,16.491819 35.941417,16.491819c-9.021236,-7.603999 -13.681696,-16.196327 -16.026509,-23.962464c16.43426,-8.74359 27.006675,-22.191153 27.006675,-37.29402z" fill-opacity="null" stroke-opacity="null" stroke-width="0" fill="#000000"/>
 </g>
</svg>