<svg width="350" height="350" xmlns="http://www.w3.org/2000/svg">
 <!-- Created with SVG Editor - http://github.com/mzalive/SVG Editor/ -->

 <g>
  <title>background</title>
  <rect id="canvas_background" fill="none" x="-1" y="-1" width="352" height="352"/>
 </g>
 <g>
  <title>Layer 1</title>
  <path stroke="#000" id="svg_1" d="m175.000011,15.499985c-88.090261,0 -159.500011,71.408818 -159.500011,159.499985c0,88.089317 71.40975,159.500036 159.500011,159.500036c88.091282,0 159.500011,-71.41072 159.500011,-159.500036c0,-88.091167 -71.408729,-159.499985 -159.500011,-159.499985zm13.773094,245.97543l0,22.465985l-21.487548,0l0,-22.212865c-35.260604,-4.828882 -50.712339,-33.800604 -50.712339,-33.800604l21.970922,-18.359191c0,0 14.003361,24.395922 39.353948,24.395922c14.002238,0 24.626049,-7.495429 24.626049,-20.293161c0,-29.946969 -80.649981,-26.315537 -80.649981,-81.855852c0,-24.144844 19.073024,-41.53906 45.399968,-45.641834l0,-22.463739l21.488441,0l0,22.451311c18.348868,2.415481 40.07804,12.073347 40.07804,32.846182l0,15.935148l-28.490198,0l0,-7.725632c0,-7.966758 -10.1509,-13.27932 -21.497884,-13.27932c-14.485804,0 -25.109666,7.242589 -25.109666,17.38383c0,30.66107 80.649955,23.177801 80.649955,81.374532c0.011522,23.912254 -17.854712,44.676617 -45.619708,48.779301l0,-0.000013z" stroke-opacity="null" stroke-width="0" fill="#000000"/>
 </g>
</svg>