<svg width="350" height="350" xmlns="http://www.w3.org/2000/svg">
 <!-- Created with SVG Editor - http://github.com/mzalive/SVG Editor/ -->

 <g>
  <title>background</title>
  <rect id="canvas_background" fill="none" x="-1" y="-1" width="352" height="352"/>
 </g>
 <g>
  <title>Layer 1</title>
  <path id="svg_1" d="m231.208113,228.807115c-12.375296,-4.952305 -17.316668,-18.562944 -17.316668,-18.562944s-5.575442,3.082892 -5.575442,-5.575442s5.575442,5.575442 11.150885,-27.855348c0,0 15.458187,-4.340099 12.375296,-40.230644l-3.716962,0c0,0 9.281472,-38.372163 0,-51.370596c-9.292404,-12.998433 -12.998433,-21.656768 -33.43079,-27.855348s-12.987501,-4.963237 -27.844416,-4.329167c-14.856914,0.623138 -27.243142,8.658334 -27.243142,12.987501c0,0 -9.281472,0.623138 -12.987501,4.340099c-3.716962,3.716962 -9.90461,21.03363 -9.90461,25.373729s3.093824,33.43079 6.187648,39.618438l-3.684165,1.235343c-3.093824,35.890544 12.375296,40.230644 12.375296,40.230644c5.56451,33.43079 11.139953,19.197014 11.139953,27.855348s-5.575442,5.575442 -5.575442,5.575442s-4.941373,13.610639 -17.316668,18.562944c-12.375296,4.941373 -81.073492,31.550445 -86.659867,37.125887c-5.586375,5.586375 -4.952305,31.572309 -4.952305,31.572309l294.591074,0c0,0 0.645002,-25.985935 -4.941373,-31.572309c-5.597307,-5.575442 -74.295504,-32.184515 -86.670799,-37.125887zm-136.325034,-1.880345c-1.082292,-1.967803 -1.617972,-3.388994 -1.617972,-3.388994s-4.722728,2.612805 -4.722728,-4.722728s4.722728,4.722728 9.445455,-23.602706c0,0 13.107756,-3.673233 10.484018,-34.097657l-3.148485,0c0,0 1.56331,-6.460954 2.590941,-14.583608c-0.043729,-3.36713 0.065593,-6.952905 0.404493,-10.888511l0.415425,-4.657134c-0.229577,-5.378662 -1.16975,-10.265373 -3.410859,-13.402926c-7.871213,-11.008766 -11.019698,-18.355231 -28.325434,-23.602706c-17.305736,-5.247475 -11.019698,-4.208912 -23.602706,-3.673233c-12.593941,0.524748 -23.088891,7.335533 -23.088891,11.019698c0,0 -7.871213,0.524748 -11.019698,3.673233c-2.962637,2.962637 -7.707229,15.982935 -8.275706,20.607273l0,3.071959c0.513815,7.138753 2.820518,26.773056 5.127221,31.397394l-3.126621,1.049495c-2.612805,30.424424 10.484018,34.097657 10.484018,34.097657c4.722728,28.325434 9.445455,16.267173 9.445455,23.602706s-4.722728,4.722728 -4.722728,4.722728s-4.187048,11.555378 -14.681998,15.731493c-0.666867,0.262374 -1.519581,0.612205 -2.53628,1.005766l0,57.219345l6.286038,0c-0.317035,-13.971403 0.841782,-31.998667 8.155451,-39.290471c3.891877,-3.880945 16.649802,-10.265373 69.441589,-31.288071zm244.116921,-99.002366c-0.43729,-4.132387 -1.388394,-7.816552 -3.192214,-10.341899c-7.860281,-11.019698 -11.019698,-18.355231 -28.314502,-23.602706c-17.316668,-5.247475 -11.019698,-4.208912 -23.613639,-3.673233c-12.583008,0.524748 -23.077959,7.335533 -23.077959,11.019698c0,0 -7.860281,0.524748 -11.019698,3.673233c-2.962637,2.973569 -7.750958,16.092257 -8.286638,20.672866l0.360764,0l0.874579,9.981135c0.218645,2.525347 0.240509,4.766457 0.29517,7.051295c0.983902,7.280872 2.29577,14.758524 3.607639,17.371329l-3.126621,1.049495c-2.612805,30.424424 10.49495,34.097657 10.49495,34.097657c4.722728,28.325434 9.434523,16.267173 9.434523,23.602706s-4.722728,4.722728 -4.722728,4.722728s-0.579409,1.552378 -1.781955,3.695097c52.146785,20.771256 64.795387,27.111955 68.643536,30.981968c7.324601,7.291804 8.472486,25.308136 8.155451,39.290471l5.247475,0l0,-58.006466c-0.174916,-0.065593 -0.415425,-0.163984 -0.568476,-0.229577c-10.484018,-4.187048 -14.681998,-15.731493 -14.681998,-15.731493s-4.73366,2.612805 -4.73366,-4.722728s4.73366,4.722728 9.445455,-23.602706c0,0 8.789521,-2.503483 10.527747,-20.126254l0,-13.413859c-0.010932,-0.19678 -0.010932,-0.360764 -0.032797,-0.557544l-3.159417,0c0,0 2.350432,-9.729694 3.192214,-20.344899l0,-12.856314l0.032797,0z" stroke-width="1.5" stroke="#000" fill="#000000"/>
 </g>
</svg>