<svg width="350" height="350" xmlns="http://www.w3.org/2000/svg">
 <!-- Created with SVG Editor - http://github.com/mzalive/SVG Editor/ -->

 <g>
  <title>background</title>
  <rect id="canvas_background" fill="none" x="-1" y="-1" width="352" height="352"/>
 </g>
 <g>
  <title>Layer 1</title>
  <rect id="svg_2" fill="none" stroke="#000" stroke-width="14" x="27" y="19" width="300" height="300" rx="17"/>
  <style transform="matrix(1.4769001093543608,0,0,1.4769001093543608,0,0) " type="text/css">.st0{fill:#000000;}</style>
  <g stroke="null" id="svg_14">
   <g stroke="null" transform="matrix(4.233553581524854,0,0,4.233553581524854,-320.13979236189255,-334.06661982653014) " id="svg_9">
    <path fill="#000000" stroke="null" d="m139.456077,88.54225l-45,0c-2.1,0 -3.8,1.7 -3.8,3.8l0,52.5c0,2.1 1.7,3.8 3.8,3.8l45,0c2.1,0 3.8,-1.7 3.8,-3.8l0,-52.5c0,-2.1 -1.7,-3.8 -3.8,-3.8zm-43.1,3.8c1,0 1.9,0.8 1.9,1.9c0,1 -0.8,1.9 -1.9,1.9c-1,0 -1.9,-0.8 -1.9,-1.9c0,-1.1 0.8,-1.9 1.9,-1.9zm20.6,41.2l-0.6,-0.1c-3.7,6.9 -4.9,8.2 -5.4,8.6c-2,2 -4.8,3.2 -7.5,3.2c-2.4,0 -4.7,-0.9 -6.4,-2.6c-1.7,-1.7 -2.6,-3.9 -2.6,-6.4c0,-2.7 1.2,-5.5 3.2,-7.5c0.7,-0.7 2.2,-1.7 4.3,-3c-2.3,-3.1 -3.7,-6.9 -3.7,-11.1c0,-10.4 8.4,-18.8 18.8,-18.8c10.4,0 18.8,8.4 18.8,18.8c-0.1,10.5 -8.5,18.9 -18.9,18.9zm22.5,9.4c0,1 -0.8,1.9 -1.9,1.9c-1,0 -1.9,-0.8 -1.9,-1.9l0,-3.8c0,-1 0.8,-1.9 1.9,-1.9c1,0 1.9,0.8 1.9,1.9l0,3.8zm-1.9,-46.9c-1,0 -1.9,-0.8 -1.9,-1.9c0,-1 0.8,-1.9 1.9,-1.9c1,0 1.9,0.8 1.9,1.9c0,1.1 -0.8,1.9 -1.9,1.9z" class="st0" id="svg_12"/>
    <circle fill="#000000" stroke="null" r="3.8" cy="114.84225" cx="116.956077" class="st0" id="svg_11"/>
    <path fill="#000000" stroke="null" d="m113.656077,125.14225c-5.7,2.9 -11.2,5.9 -12.6,7.2c-1.1,1.1 -1.8,2.6 -1.8,4.1c0,1.1 0.4,2.2 1.1,2.9c0.7,0.7 1.8,1.1 2.9,1.1c1.5,0 2.9,-0.6 4.1,-1.8c1.1,-1.1 3.8,-5.7 7.2,-12.6l-0.1,-0.9l-0.8,0z" class="st0" id="svg_10"/>
   </g>
  </g>
 </g>
</svg>