<svg width="350" height="350" xmlns="http://www.w3.org/2000/svg">
 <!-- Created with SVG Editor - http://github.com/mzalive/SVG Editor/ -->

 <g>
  <title>background</title>
  <rect height="352" width="352" y="-1" x="-1" fill="none" id="canvas_background"/>
 </g>
 <g>
  <title>Layer 1</title>
  <path id="svg_3" d="m174.999976,13.5c-89.19386,0 -161.499977,72.306233 -161.499977,161.499977c0,89.195721 72.306117,161.500016 161.499977,161.500016c89.195785,0 161.500016,-72.304282 161.500016,-161.500016c0,-89.193744 -72.30423,-161.499977 -161.500016,-161.499977zm-13.812332,72.605085l26.89126,0l0,28.60369l-26.89126,0l0,-28.60369zm44.503661,173.591184l-29.578646,0c-11.491461,0 -16.391642,-4.889457 -16.391642,-16.624744l0,-76.282195c0,-3.666657 -1.954111,-5.3791 -5.377007,-5.3791l-9.778915,0l0,-26.412251l29.580726,0c11.499988,0 16.378903,5.13318 16.378903,16.622613l0,76.527985c0,3.433606 1.954124,5.379203 5.377007,5.379203l9.779031,0l0,26.168476l0.010543,0l0,0.000013z" fill-opacity="null" stroke-opacity="null" stroke-width="0" stroke="#000" fill="#000000"/>
 </g>
</svg>