<svg width="350" height="350" xmlns="http://www.w3.org/2000/svg">
 <!-- Created with SVG Editor - http://github.com/mzalive/SVG Editor/ -->

 <g>
  <title>background</title>
  <rect id="canvas_background" fill="none" x="-1" y="-1" width="352" height="352"/>
 </g>
 <g>
  <title>Layer 1</title>
  <path stroke="#000" id="svg_1" d="m211.594792,174.929019l0.110974,-0.073983l-7.151682,-11.245403c20.394623,-27.447661 23.131991,-65.585853 3.699146,-96.177789c-25.191182,-39.617851 -77.719051,-51.307151 -117.336902,-26.115969c-39.60552,25.178852 -51.331812,77.706721 -26.14063,117.349233c18.840982,29.617827 53.021089,43.612928 85.622893,38.249167l5.228126,8.249095l2.54008,0.554872l9.605448,-5.511727l-3.760798,16.979079l30.616596,6.806428l-3.649824,16.337894l23.464914,5.228126l-8.38473,37.731286l17.336663,3.859442l-5.228126,23.501906l50.986558,11.319386l9.346508,-41.825008l-66.905215,-105.216035zm-91.122289,-87.114882c-8.446383,5.376092 -19.642464,2.873003 -25.018556,-5.57338c-5.363761,-8.446383 -2.885334,-19.654794 5.561049,-25.018556s19.654794,-2.873003 25.006225,5.57338c5.388422,8.446383 2.885334,19.654794 -5.548719,25.018556z" fill-opacity="null" stroke-opacity="null" stroke-width="4" fill="#000000"/>
 </g>
</svg>