<svg width="350" height="350" xmlns="http://www.w3.org/2000/svg">
 <!-- Created with SVG Editor - http://github.com/mzalive/SVG Editor/ -->

 <g>
  <title>background</title>
  <rect id="canvas_background" fill="none" x="-1" y="-1" width="352" height="352"/>
 </g>
 <g>
  <title>Layer 1</title>
  <rect id="svg_2" fill="none" stroke="#000" stroke-width="11" x="28" y="23" width="300" height="300" rx="17"/>
  <path stroke="#000" id="svg_1" d="m176.872517,131.30572l61.12748,-83.346582l61.12748,83.346582l-30.563742,0l0,83.74763l-61.127476,0l0,-83.74763l-30.563742,0z" fill-opacity="null" stroke-opacity="null" stroke-width="11" fill="#000000"/>
  <path stroke="#000" id="svg_5" d="m145.307235,218.502194l0.054226,-0.036151l-3.494557,-5.494889c9.965512,-13.411868 11.303083,-32.047495 1.807529,-46.995763c-12.309275,-19.358639 -37.976191,-25.070432 -57.334831,-12.761157c-19.352614,12.30325 -25.082482,37.970166 -12.773207,57.340856c9.206349,14.472285 25.90792,21.310771 41.838279,18.689853l2.554641,4.03079l1.24117,0.271129l4.693551,-2.693219l-1.837655,8.29656l14.960318,3.325854l-1.783429,7.983255l11.465761,2.554641l-4.097066,18.436799l8.471287,1.885856l-2.554641,11.483836l24.913779,5.53104l4.567024,-20.437132l-32.692181,-51.412159zm-44.525473,-42.567316c-4.127192,2.626943 -9.597981,1.403848 -12.224923,-2.723344c-2.620918,-4.127192 -1.409873,-9.604006 2.717319,-12.224923s9.604006,-1.403848 12.218898,2.723344c2.632968,4.127192 1.409873,9.604006 -2.711294,12.224923z" fill-opacity="null" stroke-opacity="null" stroke-width="0" fill="#000000"/>
 </g>
</svg>