<svg width="350" height="350" xmlns="http://www.w3.org/2000/svg">
 <!-- Created with SVG Editor - http://github.com/mzalive/SVG Editor/ -->

 <g>
  <title>background</title>
  <rect height="352" width="352" y="-1" x="-1" fill="none" id="canvas_background"/>
 </g>
 <g>
  <title>Layer 1</title>
  <rect rx="17" height="300" width="300" y="19" x="27" stroke-width="14" stroke="#000" fill="none" id="svg_2"/>
  <path stroke="#000" id="svg_4" d="m82.870554,230.022456l188.115509,0.071822l-6.104392,9.022033l-175.834653,-0.215458l-6.176472,-8.878397l0.000008,0zm1.292751,-120.0135l185.601822,-0.215458l5.386372,9.255228l-196.446468,0.071822l5.458275,-9.111591zm-18.316633,60.137147l222.091355,-0.215458l-0.287079,9.255236l-221.660639,-0.143636l-0.143636,-8.896141zm222.275201,0.858417c0,61.271829 -49.854539,111.117085 -111.14412,111.117085c-61.263102,0 -111.10835,-49.854265 -111.10835,-111.117085c0,-61.263118 49.854257,-111.108366 111.10835,-111.108366c61.289589,-0.009001 111.14412,49.845248 111.14412,111.108366zm-111.135393,-120.013508c-66.153463,0 -119.986473,53.833018 -119.986473,120.004483c0,66.180482 53.833018,120.013492 119.986473,120.013492c66.189483,0 120.013508,-53.833009 120.013508,-120.013492c0,-66.171465 -53.824017,-120.004483 -120.013508,-120.004483zm33.671571,120.013508c0,65.47405 -17.7388,111.117085 -33.671571,111.117085c-15.914745,0 -33.653263,-45.643035 -33.653263,-111.117085c0,-65.492076 17.729775,-111.108366 33.653263,-111.108366c15.923778,-0.009001 33.671571,45.61629 33.671571,111.108366zm-33.671571,-120.013508c-27.636012,0 -42.549404,61.835012 -42.549404,120.004483c0,58.187231 14.913392,120.013492 42.549404,120.013492c27.636294,0 42.576713,-61.835254 42.576713,-120.013492c-0.009009,-58.169471 -14.940419,-120.004483 -42.576713,-120.004483zm78.858661,120.013508c0,61.271829 -35.388083,111.117085 -78.858661,111.117085c-43.461545,0 -78.831626,-49.854265 -78.831626,-111.117085c0,-61.263118 35.370081,-111.108366 78.831626,-111.108366c43.470578,-0.009001 78.858661,49.845248 78.858661,111.108366zm-78.858661,-120.013508c-48.361197,0 -87.727759,53.833018 -87.727759,120.004483c0,66.180482 39.366561,120.013492 87.727759,120.013492c48.379215,0 87.737042,-53.833009 87.737042,-120.013492c0,-66.171465 -39.357826,-120.004483 -87.737042,-120.004483z" stroke-opacity="null" stroke-width="4" fill="#000000"/>
 </g>
</svg>