<svg width="350" height="350" xmlns="http://www.w3.org/2000/svg">
 <!-- Created with SVG Editor - http://github.com/mzalive/SVG Editor/ -->

 <g>
  <title>background</title>
  <rect id="canvas_background" fill="none" x="-1" y="-1" width="352" height="352"/>
 </g>
 <g>
  <title>Layer 1</title>
  <g stroke="null" id="svg_28">
   <g stroke="null" transform="matrix(0.49266716338498995,0,0,0.49266716338498995,-1315.83596284812,-1316.8359362789636) " id="svg_11">
    <path stroke="null" id="svg_12" d="m3284.408831,2896.387755l-21.445,21.455l-128.681,-128.663l21.445,-21.457c23.689,-23.692 62.104,-23.692 85.795,0l42.886,42.897c23.657,23.679 23.657,62.078 0,85.768zm-300.243,257.31c-5.922,5.922 -5.922,15.513 0,21.436c5.925,5.955 15.521,5.955 21.443,0l235.914,-235.849l-21.469,-21.457l-235.888,235.87zm-107.233,-107.208c-5.925,5.927 -5.925,15.514 0,21.44c5.922,5.923 15.518,5.923 21.443,0l235.907,-235.867l-21.436,-21.443l-235.914,235.87zm278.767,-193l-235.886,235.881c-11.845,11.822 -11.815,31.041 0,42.886c11.85,11.846 31.038,11.901 42.914,-0.032l235.886,-235.837l-42.914,-42.898zm-193.033,343.032c-7.253,-7.262 -10.749,-16.465 -12.05,-25.948c-3.083,0.476 -6.188,0.919 -9.36,0.919c-16.202,0 -31.419,-6.333 -42.881,-17.795c-11.462,-11.491 -17.77,-26.687 -17.77,-42.887c0,-2.954 0.443,-5.833 0.859,-8.703c-9.803,-1.335 -18.864,-5.629 -25.972,-12.737c-0.682,-0.677 -0.917,-1.596 -1.538,-2.338l-37.022,148.133l147.748,-36.986c-0.651,-0.593 -1.388,-1.037 -2.014,-1.658z"/>
   </g>
   <g stroke="null" transform="matrix(0.49266716338498995,0,0,0.49266716338498995,-1315.83596284812,-1316.8359362789636) " id="svg_13"/>
   <g stroke="null" transform="matrix(0.49266716338498995,0,0,0.49266716338498995,-1315.83596284812,-1316.8359362789636) " id="svg_14"/>
   <g stroke="null" transform="matrix(0.49266716338498995,0,0,0.49266716338498995,-1315.83596284812,-1316.8359362789636) " id="svg_15"/>
   <g stroke="null" transform="matrix(0.49266716338498995,0,0,0.49266716338498995,-1315.83596284812,-1316.8359362789636) " id="svg_16"/>
   <g stroke="null" transform="matrix(0.49266716338498995,0,0,0.49266716338498995,-1315.83596284812,-1316.8359362789636) " id="svg_17"/>
   <g stroke="null" transform="matrix(0.49266716338498995,0,0,0.49266716338498995,-1315.83596284812,-1316.8359362789636) " id="svg_18"/>
   <g stroke="null" transform="matrix(0.49266716338498995,0,0,0.49266716338498995,-1315.83596284812,-1316.8359362789636) " id="svg_19"/>
   <g stroke="null" transform="matrix(0.49266716338498995,0,0,0.49266716338498995,-1315.83596284812,-1316.8359362789636) " id="svg_20"/>
   <g stroke="null" transform="matrix(0.49266716338498995,0,0,0.49266716338498995,-1315.83596284812,-1316.8359362789636) " id="svg_21"/>
   <g stroke="null" transform="matrix(0.49266716338498995,0,0,0.49266716338498995,-1315.83596284812,-1316.8359362789636) " id="svg_22"/>
   <g stroke="null" transform="matrix(0.49266716338498995,0,0,0.49266716338498995,-1315.83596284812,-1316.8359362789636) " id="svg_23"/>
   <g stroke="null" transform="matrix(0.49266716338498995,0,0,0.49266716338498995,-1315.83596284812,-1316.8359362789636) " id="svg_24"/>
   <g stroke="null" transform="matrix(0.49266716338498995,0,0,0.49266716338498995,-1315.83596284812,-1316.8359362789636) " id="svg_25"/>
   <g stroke="null" transform="matrix(0.49266716338498995,0,0,0.49266716338498995,-1315.83596284812,-1316.8359362789636) " id="svg_26"/>
   <g stroke="null" transform="matrix(0.49266716338498995,0,0,0.49266716338498995,-1315.83596284812,-1316.8359362789636) " id="svg_27"/>
  </g>
 </g>
</svg>