<svg width="350" height="350" xmlns="http://www.w3.org/2000/svg">
 <!-- Created with SVG Editor - http://github.com/mzalive/SVG Editor/ -->

 <g>
  <title>background</title>
  <rect id="canvas_background" fill="none" x="-1" y="-1" width="352" height="352"/>
 </g>
 <g>
  <title>Layer 1</title>
  <path stroke="#000" transform="rotate(13 179.49084472656247,181.49665832519537) " id="svg_1" d="m281.006298,45.527535l-36.099179,-22.689364c-9.107938,-5.718982 -21.109227,-2.966436 -26.848171,6.143401l-14.228727,22.647028l69.059258,43.374585l14.239949,-22.636515c5.717163,-9.120681 2.988571,-21.132895 -6.12313,-26.839134l0,0zm-200.067266,201.761086l69.063022,43.374139l112.561276,-179.188505l-69.095898,-43.385463l-112.528411,179.199819l0.000011,0.000011zm-10.549363,55.108459l-1.525355,40.740584l36.043802,-19.064737l33.494932,-17.685233l-66.627309,-41.870885l-1.386059,37.880281l0,0l-0.000011,-0.000011z" stroke-opacity="null" stroke-width="0" fill="#ffffff"/>
 </g>
</svg>