<svg width="350" height="350" xmlns="http://www.w3.org/2000/svg">
 <!-- Created with SVG Editor - http://github.com/mzalive/SVG Editor/ -->

 <g>
  <title>background</title>
  <rect height="352" width="352" y="-1" x="-1" fill="none" id="canvas_background"/>
 </g>
 <g>
  <title>Layer 1</title>
  <rect rx="17" height="300" width="300" y="23" x="28" stroke-width="11" stroke="#000" fill="none" id="svg_2"/>
  <path d="m229.735001,159.330002c0,0 8.951996,-36.802002 0,-49.269005c-8.962997,-12.466797 -12.537994,-20.770996 -32.246002,-26.715996s-12.526993,-4.7603 -26.856995,-4.1521c-14.330002,0.597595 -26.277008,8.304199 -26.277008,12.456299c0,0 -8.951996,0.597603 -12.525986,4.162598c-3.586014,3.564903 -9.554008,20.173203 -9.554008,24.336205s2.984001,32.062996 5.967995,37.997993l-3.552994,1.184006c-2.984001,34.423004 11.936005,38.585999 11.936005,38.585999c5.367996,32.063004 10.744995,18.410995 10.744995,26.716003s-5.376999,5.347 -5.376999,5.347s-4.766998,13.054001 -16.703003,17.804001c-11.935997,4.738998 -78.1982,30.259995 -83.586502,35.60701c-5.388199,5.357971 -4.7766,30.280975 -4.7766,30.280975l284.143116,0c0,0 0.621979,-24.923004 -4.766022,-30.280975c-5.398987,-5.358002 -71.660995,-30.868011 -83.597,-35.60701c-11.935989,-4.75 -16.701996,-17.804001 -16.701996,-17.804001s-5.377991,2.957001 -5.377991,-5.347s5.377991,5.347 10.75499,-26.716003c0,0 14.910004,-4.162994 11.937012,-38.585999l-3.585007,0z" stroke-width="11" stroke-opacity="null" stroke="#000" fill="#000000" id="svg_1"/>
 </g>
</svg>