<svg width="350" height="350" xmlns="http://www.w3.org/2000/svg">
 <!-- Created with SVG Editor - http://github.com/mzalive/SVG Editor/ -->

 <g>
  <title>background</title>
  <rect height="352" width="352" y="-1" x="-1" fill="none" id="canvas_background"/>
 </g>
 <g>
  <title>Layer 1</title>
  <rect rx="17" height="300" width="300" y="23" x="28" stroke-width="11" stroke="#000" fill="none" id="svg_2"/>
  <path d="m227.727066,256.96225c-10.98317,-4.381363 -15.371964,-16.460175 -15.371964,-16.460175s-4.944031,2.723679 -4.944031,-4.958221s4.944031,4.958221 9.895447,-24.704742c0,0 13.713867,-3.863174 10.98288,-35.701721l-3.300995,0c0,0 8.237427,-34.044647 0,-45.590439c-8.244507,-11.530273 -11.530655,-19.212799 -29.662674,-24.71904s-11.523468,-4.396095 -24.712036,-3.833672c-13.181015,0.547409 -24.171417,7.682098 -24.171417,11.530663c0,0 -8.237289,0.547913 -11.5233,3.848434c-3.300919,3.300926 -8.79232,18.665329 -8.79232,22.513931s2.745811,29.662903 5.491402,35.154633l-3.263733,1.09549c-2.745773,31.838547 10.975693,35.701721 10.975693,35.701721c4.93631,29.662964 9.887604,17.022552 9.887604,24.704742s-4.951294,4.958221 -4.951294,4.958221s-4.381409,12.078812 -15.364227,16.460175c-10.975624,4.396118 -71.937466,28.004913 -76.895924,32.949036c-4.958805,4.958221 -4.396446,28.019836 -4.396446,28.019836l261.401989,0c0,0 0.577362,-23.061615 -4.3815,-28.019836c-4.965973,-4.944122 -65.927505,-28.552917 -76.903152,-32.949036zm-120.968773,-1.657806c-0.962135,-1.747375 -1.435875,-3.005081 -1.435875,-3.005081s-4.188942,2.309021 -4.188942,-4.203857s4.188942,4.203857 8.377869,-20.929947c0,0 11.634666,-3.271194 9.303291,-30.27005l-2.790306,0c0,0 1.384003,-5.727921 2.294189,-12.936569c-0.036804,-2.98967 0.059219,-6.172607 0.362885,-9.650772l0.369873,-4.144363c-0.20726,-4.766464 -1.043434,-9.1035 -3.026947,-11.886169c-6.986458,-9.769638 -9.784103,-16.282028 -25.133537,-20.944702c-15.357155,-4.662537 -9.784073,-3.730286 -20.94471,-3.256271c-11.175461,0.458893 -20.493332,6.498016 -20.493332,9.769196c0,0 -6.979115,0.473511 -9.776794,3.271088c-2.627136,2.620117 -6.838264,14.180161 -7.341759,18.280396l0,2.723602c0.459045,6.335052 2.501637,23.757141 4.551743,27.857193l-2.775368,0.932632c-2.316525,26.998932 9.302971,30.254791 9.302971,30.254791c4.188965,25.133804 8.377907,14.431641 8.377907,20.944748s-4.188942,4.189056 -4.188942,4.189056s-3.715431,10.258102 -13.025879,13.957535c-0.591869,0.237244 -1.346836,0.548645 -2.249634,0.903564l0,50.77066l5.572834,0c-0.281235,-12.403809 0.747494,-28.389954 7.238178,-34.873535c3.456173,-3.434052 14.772305,-9.102753 61.620285,-27.753143zm216.611183,-87.849396c-0.384796,-3.671005 -1.228424,-6.942383 -2.827057,-9.177414c-6.979095,-9.783768 -9.783997,-16.282028 -25.126312,-20.944702c-15.364563,-4.662537 -9.776672,-3.730286 -20.952209,-3.256271c-11.168091,0.458893 -20.478409,6.498016 -20.478409,9.769196c0,0 -6.979172,0.473511 -9.776825,3.271088c-2.634506,2.634521 -6.88269,14.269241 -7.356293,18.339676l0.318253,0l0.77713,8.851547c0.192505,2.249542 0.214645,4.233337 0.258926,6.260925c0.873154,6.453903 2.042847,13.100357 3.204697,15.409042l-2.775223,0.932632c-2.316727,26.998932 9.31012,30.254791 9.31012,30.254791c4.196564,25.133804 8.377853,14.431641 8.377853,20.944748s-4.196243,4.189056 -4.196243,4.189056s-0.510696,1.37674 -1.576355,3.286346c46.270767,18.427689 57.490677,24.052811 60.909714,27.486923c6.498016,6.468536 7.51944,22.454681 7.23819,34.85849l4.655151,0l0,-51.466492c-0.155518,-0.058746 -0.369904,-0.148193 -0.502991,-0.207733c-9.303162,-3.714508 -13.033295,-13.957535 -13.033295,-13.957535s-4.196411,2.323959 -4.196411,-4.189056s4.196411,4.189056 8.378174,-20.944748c0,0 7.800446,-2.220108 9.340027,-17.8508l0,-11.901062c-0.007782,-0.177521 -0.007782,-0.325775 -0.029816,-0.50293l-2.797729,0c0,0 2.079834,-8.629166 2.827545,-18.043823l0,-11.411896l0.029388,0z" stroke-width="1.5" stroke="#000" fill="#000000" id="svg_1"/>
 </g>
</svg>