<svg width="350" height="350" xmlns="http://www.w3.org/2000/svg">
 <!-- Created with SVG Editor - http://github.com/mzalive/SVG Editor/ -->

 <g>
  <title>background</title>
  <rect height="352" width="352" y="-1" x="-1" fill="none" id="canvas_background"/>
 </g>
 <g>
  <title>Layer 1</title>
  <rect rx="17" height="300" width="300" y="23" x="28" stroke-width="11" stroke="#000" fill="none" id="svg_2"/>
  <path d="m197.906845,218.429443l-7.888931,-27.603516c2.312531,-2.026306 4.478058,-4.199707 6.527802,-6.519928l27.580292,7.888901c2.915939,-4.238449 5.413956,-8.739746 7.656982,-13.411285l-20.526688,-19.869354c0.982147,-2.923538 1.832977,-5.893387 2.443924,-8.948471l27.665482,-6.937653c0.201111,-2.552307 0.394455,-5.120117 0.394455,-7.734253s-0.201065,-5.174133 -0.394455,-7.726547l-27.665482,-6.929977c-0.618805,-3.062782 -1.469437,-6.032669 -2.443924,-8.956245l20.534393,-19.869385c-2.250732,-4.663712 -4.748749,-9.172844 -7.664688,-13.411232l-27.580292,7.881294c-2.034164,-2.312599 -4.215271,-4.486023 -6.527802,-6.520042l7.888931,-27.595909c-4.238342,-2.900311 -8.755112,-5.413998 -13.426773,-7.656857l-19.869308,20.542194c-2.908035,-0.982224 -5.885712,-1.825279 -8.948502,-2.444057l-6.92215,-27.673206c-2.567841,-0.193378 -5.120148,-0.394444 -7.734375,-0.394444s-5.174149,0.201065 -7.72644,0.394444l-6.937767,27.673206c-3.062737,0.618778 -6.032692,1.461834 -8.948441,2.444057l-19.86937,-20.542194c-4.663765,2.273823 -9.165161,4.779747 -13.403557,7.687828l7.888962,27.59586c-2.312485,2.026428 -4.493637,4.207535 -6.520012,6.504539l-27.595863,-7.889015c-2.908112,4.238541 -5.413914,8.755264 -7.64922,13.426849l20.534504,19.869263c-0.974533,2.915924 -1.825226,5.885811 -2.443985,8.948593l-27.673225,6.93766c-0.193363,2.552261 -0.394512,5.120056 -0.394512,7.726517s0.201149,5.166443 0.394512,7.734329l27.673225,6.929825c0.618759,3.062851 1.469452,6.032761 2.443985,8.95636l-20.534504,19.869263c2.235306,4.656006 4.741108,9.172836 7.64922,13.411224l27.595863,-7.889023c2.026375,2.320282 4.207527,4.478333 6.520012,6.520142l-7.888962,27.603455c4.238396,2.900528 8.747528,5.398758 13.41124,7.649277l19.869385,-20.534454c2.923515,0.982254 5.893478,1.833145 8.956207,2.444046l6.929901,27.665558c2.552353,0.200989 5.120102,0.394333 7.734375,0.394333s5.174164,-0.201096 7.734192,-0.394333l6.922272,-27.665558c3.062775,-0.618683 6.048218,-1.469513 8.956177,-2.444046l19.86937,20.534454c4.648453,-2.266083 9.165222,-4.772049 13.403564,-7.672485zm-56.893311,-48.671555c-19.026436,0 -34.456268,-15.429962 -34.456268,-34.456345s15.429832,-34.448425 34.456268,-34.448425s34.448364,15.422173 34.448364,34.448425s-15.422119,34.456345 -34.448364,34.456345zm157.052139,72.029221c0.185638,-5.545425 -0.610901,-11.191589 -2.335754,-16.767944l12.614532,-17.974426c-1.910248,-3.550125 -4.060486,-6.914505 -6.504456,-9.977173l-21.509186,4.516769c-4.338745,-3.689316 -9.273346,-6.574036 -14.555725,-8.631546l-6.19519,-21.075729c-3.913483,-0.688553 -7.873337,-1.059601 -11.887482,-1.075256l-9.876663,19.6297c-2.830933,0.549149 -5.653854,1.299316 -8.438187,2.358856c-2.598816,0.997787 -5.035019,2.235291 -7.363007,3.581116l-20.341156,-8.298981c-3.008591,2.652863 -5.754288,5.522339 -8.237061,8.631592l9.188324,19.954407c-2.621826,5.019455 -4.423996,10.417999 -5.259186,16.064072l-19.165665,10.750641c0.185806,3.929092 0.765823,7.865768 1.662903,11.810165l21.323349,5.259262c2.343582,5.313416 5.483688,10.062378 9.288956,14.122803l-3.565506,21.671509c3.24057,2.327942 6.690155,4.338989 10.263489,6.079071l17.38652,-13.380249c5.437286,1.430878 11.121902,1.97995 16.853043,1.523682l14.718262,16.288269c2.026489,-0.572113 4.044983,-1.190948 6.040436,-1.956696c1.771301,-0.665222 3.449677,-1.453979 5.12027,-2.258423l0.371185,-21.94989c4.617218,-3.434021 8.546265,-7.571838 11.678711,-12.220123l21.911285,-1.361176c1.539032,-3.642975 2.822998,-7.424896 3.727875,-11.307602l-16.914917,-14.006699zm-42.205963,20.348907c-12.173615,4.640472 -25.801407,-1.461914 -30.449905,-13.635574s1.446381,-25.80928 13.620102,-30.465302c12.173721,-4.640503 25.824768,1.461807 30.472992,13.635483c4.648346,12.173813 -1.469269,25.809235 -13.643188,30.465393z" stroke-width="0" stroke-opacity="null" stroke="#000" fill="#000000" id="svg_7"/>
 </g>
</svg>