<svg width="350" height="350" xmlns="http://www.w3.org/2000/svg">
 <!-- Created with SVG Editor - http://github.com/mzalive/SVG Editor/ -->

 <g>
  <title>background</title>
  <rect height="352" width="352" y="-1" x="-1" fill="none" id="canvas_background"/>
 </g>
 <g>
  <title>Layer 1</title>
  <rect rx="17" height="300" width="300" y="23" x="28" stroke-width="11" stroke="#000" fill="none" id="svg_2"/>
  <path id="svg_3" d="m175.000001,52.000002c-67.931671,0 -123.000002,55.067612 -123.000002,122.999982c0,67.930943 55.068331,123.000021 123.000002,123.000021c67.932458,0 123.000002,-55.069079 123.000002,-123.000021c0,-67.93237 -55.067544,-122.999982 -123.000002,-122.999982zm10.621257,189.686371l0,17.324865l-16.570334,0l0,-17.129669c-27.191561,-3.72384 -39.107319,-26.065668 -39.107319,-26.065668l16.943093,-14.157871c0,0 10.798829,18.813155 30.348184,18.813155c10.797964,0 18.99062,-5.780174 18.99062,-15.649271c0,-23.0939 -62.194026,-20.293485 -62.194026,-63.123945c0,-18.619534 14.70835,-32.033255 35.010632,-35.197149l0,-17.323133l16.571023,0l0,17.313549c14.14991,1.862722 30.906574,9.31048 30.906574,25.329656l0,12.288546l-21.970496,0l0,-5.957697c0,-6.143643 -7.827966,-10.240478 -16.578304,-10.240478c-11.17087,0 -19.363566,5.585194 -19.363566,13.405711c0,23.644586 62.194006,17.87379 62.194006,62.752771c0.008886,18.44017 -13.768837,34.452812 -35.180087,37.616638l0,-0.00001z" fill-opacity="null" stroke-opacity="null" stroke-width="0" stroke="#000" fill="#000000"/>
 </g>
</svg>