<svg width="350" height="350" xmlns="http://www.w3.org/2000/svg">
 <!-- Created with SVG Editor - http://github.com/mzalive/SVG Editor/ -->

 <g>
  <title>background</title>
  <rect id="canvas_background" fill="none" x="-1" y="-1" width="352" height="352"/>
 </g>
 <g>
  <title>Layer 1</title>
  <path id="svg_6" d="m338.499992,137.23311l-124.930043,0l-38.564273,-118.684678l-5.414924,16.58605l-33.194852,102.12138l-124.895915,-0.022752l101.04067,73.420005l-38.632528,118.764309l101.063422,-73.420005l101.086174,73.454133l-38.643904,-118.798437l101.086174,-73.420005zm-150.139019,100.358117l-13.366673,-9.703636l-13.366673,9.715012l-44.388729,32.239277l16.950079,-52.147088l5.119151,-15.721482l-13.389425,-9.726387l-44.365978,-32.239277l71.38372,0l5.119151,-15.710106l16.938703,-52.147088l16.938703,52.11296l5.107775,15.710106l71.451976,0l-44.434233,32.262029l-13.4008,9.715012l5.107775,15.744234l16.984206,52.147088l-44.388729,-32.250653z" stroke-opacity="null" stroke-width="0" stroke="#000" fill="#000000"/>
  <path id="svg_7" d="m174.971209,258.000449l-102.299668,74.318106l39.105096,-120.217079l-102.276638,-74.318106l126.423689,0.02303l33.600904,-103.370567l5.481162,-16.788937l39.036006,120.136474l126.458234,0l-102.322698,74.318106l39.116611,120.251624l-102.322698,-74.352651l0,0z" stroke-opacity="null" stroke-width="0" stroke="#000" fill="#000000"/>
 </g>
</svg>