<svg width="350" height="350" xmlns="http://www.w3.org/2000/svg">
 <!-- Created with SVG Editor - http://github.com/mzalive/SVG Editor/ -->

 <g>
  <title>background</title>
  <rect height="352" width="352" y="-1" x="-1" fill="none" id="canvas_background"/>
 </g>
 <g>
  <title>Layer 1</title>
  <path stroke="#000" id="svg_4" d="m174.976938,44.330208c13.63381,0.017238 26.658443,2.377882 38.993378,6.321596l-9.762212,16.884045l69.295863,0l-17.328398,-30.010257l-17.31517,-30.001285l-9.114843,15.808753c-17.082665,-6.24547 -35.498425,-9.740783 -54.756201,-9.740783c-88.642119,0 -160.48934,71.851734 -160.48934,160.493518c0,36.789254 12.512549,70.590523 33.336182,97.672223l24.403234,-18.736757c-16.841573,-21.885736 -26.967653,-49.196085 -27.022594,-78.926609c0.122661,-71.665712 58.103246,-129.654563 129.760088,-129.764445l0.000013,0zm127.170075,32.117212l-24.403183,18.74573c16.837331,21.877406 26.963462,49.170542 27.009791,78.909898c-0.122673,71.66512 -58.103246,129.64568 -129.764253,129.763777c-12.698751,-0.016416 -24.847548,-2.081258 -36.429242,-5.534432l9.18656,-15.885368l-69.295555,0l17.315581,29.993649l17.328076,30.035016l9.660659,-16.765074c16.384405,5.703807 33.919777,8.885938 52.23392,8.894216c88.654909,-0.016518 160.489803,-71.868316 160.510628,-160.510165c-0.020825,-36.789176 -12.54227,-70.582193 -33.352983,-97.647233l0,-0.000013z" fill-opacity="null" stroke-opacity="null" stroke-width="0" fill="#000000"/>
  <path stroke="#000" id="svg_9" d="m105.579527,218.529061l138.735186,0.052969l-4.501989,6.653749l-129.678055,-0.158901l-4.555148,-6.547818l0.000006,0zm0.953404,-88.509955l136.881342,-0.158901l3.972449,6.82573l-144.879269,0.052969l4.025478,-6.719799zm-13.508517,44.351145l163.792372,-0.158901l-0.211721,6.825736l-163.47472,-0.105932l-0.105932,-6.560904zm163.927959,0.633083c0,45.187973 -36.767722,81.948849 -81.968787,81.948849c-45.181537,0 -81.942407,-36.76752 -81.942407,-81.948849c0,-45.181549 36.767514,-81.942419 81.942407,-81.942419c45.201071,-0.006638 81.968787,36.76087 81.968787,81.942419zm-81.962351,-88.509961c-48.788179,0 -88.490023,39.70185 -88.490023,88.503305c0,48.808105 39.70185,88.509949 88.490023,88.509949c48.814743,0 88.509961,-39.701844 88.509961,-88.509949c0,-48.801455 -39.695212,-88.503305 -88.509961,-88.503305zm24.832783,88.509961c0,48.287111 -13.082365,81.948849 -24.832783,81.948849c-11.737124,0 -24.819281,-33.661738 -24.819281,-81.948849c0,-48.300405 13.075709,-81.942419 24.819281,-81.942419c11.743786,-0.006638 24.832783,33.642014 24.832783,81.942419zm-24.832783,-88.509961c-20.381558,0 -31.380185,45.603321 -31.380185,88.503305c0,42.913082 10.998627,88.509949 31.380185,88.509949c20.381766,0 31.400326,-45.603499 31.400326,-88.509949c-0.006644,-42.899984 -11.018559,-88.503305 -31.400326,-88.503305zm58.158262,88.509961c0,45.187973 -26.098711,81.948849 -58.158262,81.948849c-32.052889,0 -58.138323,-36.76752 -58.138323,-81.948849c0,-45.181549 26.085434,-81.942419 58.138323,-81.942419c32.059551,-0.006638 58.158262,36.76087 58.158262,81.942419zm-58.158262,-88.509961c-35.666382,0 -64.699221,39.70185 -64.699221,88.503305c0,48.808105 29.032839,88.509949 64.699221,88.509949c35.679671,0 64.706067,-39.701844 64.706067,-88.509949c0,-48.801455 -29.026397,-88.503305 -64.706067,-88.503305z" fill-opacity="null" stroke-opacity="null" stroke-width="0" fill="#000000"/>
 </g>
</svg>