<svg width="350" height="350" xmlns="http://www.w3.org/2000/svg">
 <!-- Created with SVG Editor - http://github.com/mzalive/SVG Editor/ -->

 <g>
  <title>background</title>
  <rect id="canvas_background" fill="none" x="-1" y="-1" width="352" height="352"/>
 </g>
 <g>
  <title>Layer 1</title>
  <path id="svg_1" d="m234.984597,131.195489c0,0 10.584518,-43.759314 0,-58.582626c-10.596985,-14.823312 -14.823312,-24.697209 -38.124212,-31.766021s-14.810845,-5.660037 -31.753554,-4.936948c-16.942709,0.710621 -31.067867,9.873897 -31.067867,14.810845c0,0 -10.584518,0.710621 -14.810845,4.949415c-4.238794,4.238794 -11.295139,23.986587 -11.295139,28.936003s3.528173,38.124212 7.056345,45.180557l-4.201393,1.408776c-3.528173,40.929296 14.112691,45.878711 14.112691,45.878711c6.345724,38.124212 12.703915,21.892124 12.703915,31.766021s-6.358191,6.358191 -6.358191,6.358191s-5.635103,15.521466 -19.747793,21.169036c-14.112691,5.635103 -92.455577,35.979881 -98.826235,42.338072c-6.370658,6.370658 -5.64757,36.004815 -5.64757,36.004815l335.949358,0c0,0 0.735555,-29.634157 -5.635103,-36.004815c-6.383125,-6.370658 -84.726012,-36.702969 -98.838702,-42.338072c-14.112691,-5.64757 -19.747793,-21.169036 -19.747793,-21.169036s-6.358191,3.515706 -6.358191,-6.358191s6.358191,6.358191 12.716382,-31.766021c0,0 17.628396,-4.949415 14.112691,-45.878711l-4.238794,0z" stroke-width="1.5" stroke="#000" fill="#000000"/>
 </g>
</svg>