<svg width="350" height="350" xmlns="http://www.w3.org/2000/svg">
 <!-- Created with SVG Editor - http://github.com/mzalive/SVG Editor/ -->

 <g>
  <title>background</title>
  <rect height="352" width="352" y="-1" x="-1" fill="none" id="canvas_background"/>
 </g>
 <g>
  <title>Layer 1</title>
  <rect rx="17" height="300" width="300" y="23" x="28" stroke-width="11" stroke="#000" fill="none" id="svg_2"/>
  <g id="svg_24">
   <g transform="matrix(0.448285, 0, 0, 0.448285, -1562.62, -1555.55)" id="svg_7">
    <path d="m4137.383789,3992.230469c-0.664063,-1.431152 -1.283203,-2.618164 -1.858398,-3.569092c-9.513672,-17.13501 -27.694824,-38.166992 -54.531738,-63.102051l-0.567139,-0.571045l-0.283936,-0.279785l-0.286865,-0.287109l-0.288086,0c-12.179932,-11.611084 -19.893066,-19.417969 -23.123047,-23.415039c-5.909912,-7.614014 -7.233887,-15.321045 -4.003906,-23.129883c2.281982,-5.900146 10.854004,-18.360107 25.696045,-37.396973c7.806885,-10.089111 13.98999,-18.175049 18.555664,-24.26709c32.931152,-43.780029 47.208008,-71.756104 42.828125,-83.938965l-1.700684,-2.847168c-1.143066,-1.713867 -4.093262,-3.281982 -8.846191,-4.711914c-4.76416,-1.427002 -10.853027,-1.663086 -18.277832,-0.711914l-82.224121,0.567871c-1.332031,-0.471924 -3.234131,-0.427979 -5.712158,0.144043c-2.474854,0.572021 -3.712891,0.859131 -3.712891,0.859131l-1.430908,0.714844l-1.135986,0.859131c-0.952148,0.567871 -1.999023,1.566895 -3.14209,2.994873c-1.136963,1.423096 -2.088135,3.093018 -2.8479,4.996094c-8.952148,23.031006 -19.130127,44.443848 -30.553223,64.238037c-7.042969,11.802979 -13.510986,22.031982 -19.417969,30.692871c-5.898926,8.657959 -10.8479,15.037109 -14.842041,19.125977c-4,4.093018 -7.609863,7.37207 -10.851807,9.849121c-3.237061,2.478027 -5.708008,3.524902 -7.419189,3.141846c-1.714844,-0.382813 -3.329834,-0.762939 -4.858887,-1.142822c-2.663086,-1.714111 -4.804932,-4.045166 -6.419922,-6.995117c-1.62207,-2.949951 -2.714111,-6.663086 -3.285156,-11.135986c-0.567871,-4.476074 -0.903809,-8.325928 -1,-11.562988c-0.088867,-3.23291 -0.047852,-7.805908 0.14502,-13.706055c0.197998,-5.902832 0.287109,-9.896973 0.287109,-11.990967c0,-7.233887 0.140869,-15.084961 0.424072,-23.554932c0.287842,-8.469971 0.520996,-15.181152 0.71582,-20.125c0.194092,-4.948975 0.28418,-10.185059 0.28418,-15.705078s-0.336182,-9.848877 -1,-12.990967c-0.65625,-3.137939 -1.663086,-6.184082 -2.990234,-9.136963c-1.334961,-2.949951 -3.288818,-5.231934 -5.852783,-6.852051c-2.569092,-1.61792 -5.763184,-2.9021 -9.564209,-3.855957c-10.088867,-2.282959 -22.935791,-3.518066 -38.546875,-3.709961c-35.401123,-0.380127 -58.147949,1.906006 -68.236084,6.85498c-3.996826,2.091064 -7.614014,4.947998 -10.8479,8.562012c-3.427002,4.188965 -3.905029,6.474854 -1.431152,6.851074c11.422119,1.710938 19.508057,5.803955 24.26709,12.274902l1.715088,3.428955c1.333984,2.474121 2.666016,6.854004 3.999023,13.134033c1.330811,6.280029 2.189941,13.227051 2.567871,20.836914c0.949951,13.896973 0.949951,25.792969 0,35.688965c-0.952881,9.900146 -1.853027,17.607178 -2.711914,23.127197c-0.859131,5.52002 -2.143066,9.99292 -3.85498,13.417969c-1.715088,3.426025 -2.855957,5.52002 -3.427979,6.280029c-0.571045,0.76001 -1.047119,1.239014 -1.425049,1.427002c-2.474121,0.947998 -5.047119,1.430908 -7.709961,1.430908c-2.666992,0 -5.901123,-1.333984 -9.707031,-4c-3.804932,-2.666016 -7.75415,-6.327881 -11.847168,-10.991943c-4.093018,-4.665039 -8.708984,-11.184082 -13.849854,-19.558105c-5.136963,-8.374023 -10.467041,-18.270996 -15.987061,-29.690918l-4.566895,-8.281982c-2.85498,-5.328125 -6.755127,-13.085938 -11.704102,-23.26709c-4.951904,-10.185059 -9.328857,-20.036865 -13.134033,-29.553955c-1.520996,-3.99707 -3.805908,-7.040039 -6.85083,-9.134033l-1.429199,-0.858887c-0.949951,-0.76001 -2.474854,-1.567139 -4.566895,-2.427002c-2.094971,-0.859131 -4.281006,-1.475098 -6.567139,-1.854004l-78.229004,0.567871c-7.993896,0 -13.417969,1.811035 -16.273926,5.427979l-1.143066,1.711182c-0.570801,0.952881 -0.858887,2.474854 -0.858887,4.569824c0,2.093994 0.571045,4.664063 1.714111,7.707031c11.419922,26.840088 23.838867,52.725098 37.256836,77.658936c13.417969,24.934082 25.078125,45.019043 34.973145,60.237061c9.896973,15.229004 19.984863,29.602051 30.263916,43.112061c10.279053,13.514893 17.083008,22.176025 20.412109,25.980957c3.333008,3.812012 5.950928,6.662109 7.854004,8.564941l7.138916,6.851074c4.567871,4.569092 11.275879,10.041016 20.126953,16.416016c8.853027,6.378906 18.654053,12.658936 29.407959,18.850098c10.756104,6.180908 23.269043,11.224854 37.546143,15.125977c14.274902,3.905029 28.168945,5.471924 41.683838,4.71582l32.833984,0c6.65918,-0.574951 11.704102,-2.668945 15.133057,-6.282959l1.135986,-1.430908c0.76416,-1.135986 1.479004,-2.901123 2.13916,-5.276123c0.667969,-2.378906 1,-5 1,-7.85083c-0.195068,-8.183105 0.427979,-15.558105 1.851807,-22.124023c1.423096,-6.563965 3.045166,-11.512939 4.859131,-14.845947c1.812988,-3.330078 3.858887,-6.140137 6.135986,-8.418213c2.281982,-2.282959 3.907959,-3.665771 4.862061,-4.141846c0.947998,-0.479004 1.704834,-0.803955 2.275879,-0.999023c4.568115,-1.521973 9.944092,-0.048096 16.135986,4.428955c6.187012,4.473145 11.98999,9.996094 17.417969,16.560059c5.425049,6.570068 11.943115,13.940918 19.555176,22.124023c7.616943,8.185791 14.276855,14.270996 19.984863,18.273926l5.708008,3.426025c3.812012,2.285889 8.760986,4.379883 14.853027,6.282959c6.081055,1.9021 11.408936,2.37793 15.983887,1.427002l73.087158,-1.139893c7.229004,0 12.854004,-1.197021 16.84375,-3.572021c3.998047,-2.37915 6.373047,-5 7.13916,-7.851074c0.76416,-2.854004 0.805176,-6.092041 0.14502,-9.711914c-0.676758,-3.611084 -1.34375,-6.135986 -2.007813,-7.562988z" id="svg_8"/>
   </g>
   <g transform="matrix(0.448285, 0, 0, 0.448285, -1562.62, -1555.55)" id="svg_9"/>
   <g transform="matrix(0.448285, 0, 0, 0.448285, -1562.62, -1555.55)" id="svg_10"/>
   <g transform="matrix(0.448285, 0, 0, 0.448285, -1562.62, -1555.55)" id="svg_11"/>
   <g transform="matrix(0.448285, 0, 0, 0.448285, -1562.62, -1555.55)" id="svg_12"/>
   <g transform="matrix(0.448285, 0, 0, 0.448285, -1562.62, -1555.55)" id="svg_13"/>
   <g transform="matrix(0.448285, 0, 0, 0.448285, -1562.62, -1555.55)" id="svg_14"/>
   <g transform="matrix(0.448285, 0, 0, 0.448285, -1562.62, -1555.55)" id="svg_15"/>
   <g transform="matrix(0.448285, 0, 0, 0.448285, -1562.62, -1555.55)" id="svg_16"/>
   <g transform="matrix(0.448285, 0, 0, 0.448285, -1562.62, -1555.55)" id="svg_17"/>
   <g transform="matrix(0.448285, 0, 0, 0.448285, -1562.62, -1555.55)" id="svg_18"/>
   <g transform="matrix(0.448285, 0, 0, 0.448285, -1562.62, -1555.55)" id="svg_19"/>
   <g transform="matrix(0.448285, 0, 0, 0.448285, -1562.62, -1555.55)" id="svg_20"/>
   <g transform="matrix(0.448285, 0, 0, 0.448285, -1562.62, -1555.55)" id="svg_21"/>
   <g transform="matrix(0.448285, 0, 0, 0.448285, -1562.62, -1555.55)" id="svg_22"/>
   <g transform="matrix(0.448285, 0, 0, 0.448285, -1562.62, -1555.55)" id="svg_23"/>
  </g>
 </g>
</svg>